<svg xmlns="http://www.w3.org/2000/svg" xmlns:xlink="http://www.w3.org/1999/xlink" width="601" height="451" version="1.1" viewBox="0 0 601 451"><desc>Created with Sketch.</desc><defs><rect id="path-1" width="138" height="54" x="0" y="0" rx="8"/><rect id="path-2" width="254" height="87" x="0" y="0" rx="8"/><rect id="path-3" width="254" height="87" x="0" y="0" rx="8"/><rect id="path-4" width="138" height="54" x="0" y="0" rx="8"/></defs><g id="Page-1" fill="none" fill-rule="evenodd" stroke="none" stroke-width="1"><g id="Gecko-Profiler"><g id="Gecko" transform="translate(205.000000, 17.000000)"><circle id="Oval-Copy-3" cx="87.5" cy="87.5" r="87.5" fill="#D7D7DB" stroke="#737373"/><text fill="#6F6F6F" font-family="Helvetica-Bold, Helvetica" font-size="25" font-weight="bold"><tspan x="50.286" y="53">Gecko</tspan></text></g><g transform="translate(226.000000, 92.000000)"><g id="Rectangle"><use fill="#FFF" fill-rule="evenodd" xlink:href="#path-1"/><rect width="137" height="53" x=".5" y=".5" stroke="#979797" stroke-width="1" rx="8"/></g><text fill="#0A84FF" font-family="Helvetica-Bold, Helvetica" font-size="17" font-weight="bold"><tspan x="12.895" y="24">Gecko Profiler</tspan></text><text id="C++-Native-Code" fill="#000" font-family="Helvetica" font-size="12" font-weight="normal"><tspan x="23.475" y="42">C++ Native Code</tspan></text></g><path id="Line-Copy-6" fill="#4A4A4A" stroke="#4A4A4A" stroke-linecap="square" d="M294.5,221.5 L294.5,147.5"/><path id="Line-Copy-6-decoration-1" fill="#4A4A4A" stroke="#4A4A4A" stroke-linecap="square" d="M294.5,147.5 L291.5,158.3 L297.5,158.3 L294.5,147.5 Z"/><path id="Line-Copy-7" fill="#4A4A4A" stroke="#4A4A4A" stroke-linecap="square" d="M220.5,348.5 L249.5,277.5"/><path id="Line-Copy-7-decoration-1" fill="#4A4A4A" stroke="#4A4A4A" stroke-linecap="square" d="M249.5,277.5 L242.638986,286.363774 L248.193513,288.632524 L249.5,277.5 Z"/><path id="Line-Copy-7" fill="#4A4A4A" stroke="#4A4A4A" stroke-linecap="square" d="M367.5,346.5 L336.5,277.5"/><path id="Line-Copy-7-decoration-1" fill="#4A4A4A" stroke="#4A4A4A" stroke-linecap="square" d="M336.5,277.5 L338.189495,288.580867 L343.662507,286.121977 L336.5,277.5 Z"/><g id="Group-2" transform="translate(17.000000, 347.000000)"><g id="Rectangle-Copy"><use fill="#FFF" fill-rule="evenodd" xlink:href="#path-2"/><rect width="253" height="86" x=".5" y=".5" stroke="#979797" stroke-width="1" rx="8"/></g><text id="new:-devtools/server" fill="#000" font-family="Helvetica-Bold, Helvetica" font-size="12" font-weight="bold" line-spacing="20"><tspan x="35.97" y="50">new:</tspan> <tspan x="63.304" y="50" font-family="Helvetica" font-weight="normal"> devtools/server/actors/perf.js</tspan> <tspan x="15.298" y="70">old: </tspan> <tspan x="40.622" y="70" font-family="Helvetica" font-weight="normal">devtools/server/actors/performance.js</tspan></text><text id="DevTools-Server-Acto" fill="#0A84FF" font-family="Helvetica-Bold, Helvetica" font-size="17" font-weight="bold"><tspan x="32.566" y="26">DevTools Server Actors</tspan></text></g><g id="Group" transform="translate(330.000000, 346.000000)"><g id="Rectangle-Copy-2"><use fill="#FFF" fill-rule="evenodd" xlink:href="#path-3"/><rect width="253" height="86" x=".5" y=".5" stroke="#979797" stroke-width="1" rx="8"/></g><text id="via:-browser.geckoPr" fill="#000" font-family="Helvetica-Bold, Helvetica" font-size="12" font-weight="bold" line-spacing="20"><tspan x="58.3" y="59">via: </tspan> <tspan x="82.312" y="59" font-family="Helvetica" font-weight="normal">browser.geckoProfiler</tspan></text><text id="Web-Extension" fill="#0A84FF" font-family="Helvetica-Bold, Helvetica" font-size="17" font-weight="bold"><tspan x="67.226" y="35">Web Extension</tspan></text></g><text id="XPIDL" fill="#000" font-family="Helvetica" font-size="12" font-weight="normal"><tspan x="305.659" y="211">XPIDL</tspan></text><g id="Group-3" transform="translate(226.000000, 222.000000)"><g id="Rectangle"><use fill="#FFF" fill-rule="evenodd" xlink:href="#path-4"/><rect width="137" height="53" x=".5" y=".5" stroke="#979797" stroke-width="1" rx="8"/></g><text id="nsIProfiler" fill="#0A84FF" font-family="Helvetica-Bold, Helvetica" font-size="17" font-weight="bold"><tspan x="28.961" y="25">nsIProfiler</tspan></text><text id="JS-Interface" fill="#000" font-family="Helvetica" font-size="12" font-weight="normal"><tspan x="37.484" y="42">JS Interface</tspan></text></g></g></g></svg>