<svg xmlns="http://www.w3.org/2000/svg" xmlns:xlink="http://www.w3.org/1999/xlink" width="746" height="439" version="1.1" viewBox="0 0 746 439"><desc>Created with Sketch.</desc><defs><rect id="path-1" width="254" height="166" x="23" y="46" rx="8"/><rect id="path-2" width="272" height="294" x="456" y="19" rx="8"/><rect id="path-3" width="138" height="54" x="0" y="0" rx="8"/><rect id="path-4" width="197" height="86" x="0" y="0" rx="8"/><rect id="path-5" width="217" height="86" x="7" y="0" rx="8"/><rect id="path-6" width="168" height="78" x="53" y="326" rx="8"/></defs><g id="Page-1" fill="none" fill-rule="evenodd" stroke="none" stroke-width="1"><g id="Remote-Profiling"><g id="Rectangle-Copy-2"><use fill="#D7D7DB" fill-rule="evenodd" xlink:href="#path-1"/><rect width="253" height="165" x="23.5" y="46.5" stroke="#979797" stroke-width="1" rx="8"/></g><g id="Rectangle-Copy-3"><use fill="#D7D7DB" fill-rule="evenodd" xlink:href="#path-2"/><rect width="271" height="293" x="456.5" y="19.5" stroke="#979797" stroke-width="1" rx="8"/></g><g id="Gecko-Profiler" transform="translate(520.000000, 243.000000)"><g id="Rectangle"><use fill="#FFF" fill-rule="evenodd" xlink:href="#path-3"/><rect width="137" height="53" x=".5" y=".5" stroke="#979797" stroke-width="1" rx="8"/></g><text fill="#0A84FF" font-family="Helvetica-Bold, Helvetica" font-size="17" font-weight="bold"><tspan x="12.895" y="24">Gecko Profiler</tspan></text><text id="C++-Native-Code" fill="#000" font-family="Helvetica" font-size="12" font-weight="normal"><tspan x="23.475" y="42">C++ Native Code</tspan></text></g><text id="WebIDE" fill="#6F6F6F" font-family="Helvetica-Bold, Helvetica" font-size="25" font-weight="bold"><tspan x="103.497" y="86">WebIDE</tspan></text><text id="Remote-Target-Phone" fill="#6F6F6F" font-family="Helvetica-Bold, Helvetica" font-size="25" font-weight="bold"><tspan x="506.403" y="63">Remote Target</tspan> <tspan x="512.961" y="93" font-family="Helvetica" font-size="20" font-weight="normal">Phone or Browser</tspan></text><g id="Group-Copy" transform="translate(52.000000, 104.000000)"><g id="Rectangle-Copy-2"><use fill="#FFF" fill-rule="evenodd" xlink:href="#path-4"/><rect width="196" height="85" x=".5" y=".5" stroke="#979797" stroke-width="1" rx="8"/></g><text id="DevTools-Client" fill="#0A84FF" font-family="Helvetica-Bold, Helvetica" font-size="17" font-weight="bold"><tspan x="35.395" y="36">DevTools Client</tspan></text><text id="Remotely-Talking-to" fill="#000" font-family="Helvetica" font-size="12" font-weight="normal"><tspan x="26.232" y="62">Remotely Talking to Phone</tspan></text></g><g id="Group-Copy-2" transform="translate(479.000000, 119.000000)"><g id="Rectangle-Copy-2"><use fill="#FFF" fill-rule="evenodd" xlink:href="#path-5"/><rect width="216" height="85" x="7.5" y=".5" stroke="#979797" stroke-width="1" rx="8"/></g><text id="DevTools-Debugger-Se" fill="#0A84FF" font-family="Helvetica-Bold, Helvetica" font-size="17" font-weight="bold"><tspan x="77.868" y="30">DevTools</tspan> <tspan x="47.002" y="50">Debugger Server</tspan></text><text id="using-devtools/serve" fill="#000" font-family="Helvetica" font-size="12" font-weight="normal"><tspan x="21.793" y="72">using devtools/server/actors/perf.js</tspan></text></g><polygon id="Triangle" fill="#4A4A4A" points="84.5 313 89 327 80 327" transform="translate(84.500000, 320.000000) rotate(161.000000) translate(-84.500000, -320.000000)"/><g id="Rectangle"><use fill="#FFF" fill-rule="evenodd" xlink:href="#path-6"/><rect width="167" height="77" x="53.5" y="326.5" stroke="#979797" stroke-width="1" rx="8"/></g><text id="profiler.firefox.com" fill="#0A84FF" font-family="Helvetica-Bold, Helvetica" font-size="17" font-weight="bold"><tspan x="60" y="350">profiler.firefox.com</tspan></text><text id="unprivileged-webpage" font-family="Helvetica" font-size="12" font-weight="normal"><tspan x="77.623" y="375" fill="#000">unprivileged webpage</tspan> <tspan x="70" y="389" fill="#0A84FF" text-decoration="underline">https://profiler.firefox.com</tspan></text><text id="Opens-up-a-new-windo" fill="#000" font-family="Helvetica" font-size="12" font-weight="normal"><tspan x="102" y="255">Opens up a new window</tspan> <tspan x="102" y="269">with profiler.firefox.com. Then injects the</tspan> <tspan x="102" y="283">JSON profile content via a content script.</tspan></text><path id="Line-Copy-7" fill="#4A4A4A" stroke="#4A4A4A" stroke-linecap="square" d="M587.5,205.5 L587.5,242.5"/><path id="Line-Copy-7-decoration-1" fill="#4A4A4A" stroke="#4A4A4A" stroke-linecap="square" d="M587.5,242.5 L590.5,231.7 L584.5,231.7 L587.5,242.5 Z"/><path id="Line-Copy-7" fill="#4A4A4A" stroke="#4A4A4A" stroke-linecap="square" d="M249.5,156.5 L485.5,156.5"/><path id="Line-Copy-7-decoration-1" fill="#4A4A4A" stroke="#4A4A4A" stroke-linecap="square" d="M485.5,156.5 L474.7,153.5 L474.7,159.5 L485.5,156.5 Z"/><path id="Line" stroke="#979797" stroke-dasharray="9" stroke-linecap="square" d="M363.5,0.5 L363.5,170.503226"/><path id="Line-Copy" stroke="#979797" stroke-dasharray="9" stroke-linecap="square" d="M363.5,246.5 L363.5,458.502358"/><text id="DevTools-Remote-Debu" fill="#000" font-family="Helvetica" font-size="12" font-weight="normal"><tspan x="291" y="189">DevTools Remote </tspan> <tspan x="291" y="203">Debugging Protocol uses a </tspan> <tspan x="291" y="217">remote target transport to </tspan> <tspan x="291" y="231">communicate with the phone</tspan></text><text id="nsIProfiler" fill="#000" font-family="Helvetica" font-size="12" font-weight="normal"><tspan x="602.991" y="230">nsIProfiler</tspan></text><path id="Path-2" stroke="#4A4A4A" d="M82.6132812,315.229492 C76.7949219,298.827148 54.7948749,288.028222 59.0800781,267.036133 C60.372361,260.705577 64.4860453,249.251083 72.6650391,247.954102 C82.9485239,246.323401 82.3505845,267.882993 69.7128906,265.1875 C48.7643407,260.719385 50.3775364,226.363741 54.1328125,211.069336"/></g></g></svg>